PathFileType	4	(X/Y/Z)	C:/Users/beibeiliu/ov580/test_trc/capture2\sequence.38_training_dense_right.trc
DataRate	CameraRate	NumFrames	NumMarkers	Units	OrigDataRate	OrigDataStartFrame	OrigNumFrames
120	120	8	19	mm	120	301	400
Frame#	Time	ThumbCMC			ThumbMCP			ThumbIP			ThumbTip			IndexMCP			IndexPIP			IndexTip			MiddleMCP			MiddlePIP			MiddleTip			RingMCP			RingPIP			RingTip			PinkyMCP			PinkyPIP			PinkyTip			BackHand1			BackHand2			BackHand3	
		X0	Y0	Z0	X1	Y1	Z1	X2	Y2	Z2	X3	Y3	Z3	X4	Y4	Z4	X5	Y5	Z5	X6	Y6	Z6	X7	Y7	Z7	X8	Y8	Z8	X9	Y9	Z9	X10	Y10	Z10	X11	Y11	Z11	X12	Y12	Z12	X13	Y13	Z13	X14	Y14	Z14	X15	Y15	Z15	X16	Y16	Z16	X17	Y17	Z17	X18	Y18	Z18	
300	2.5	183.608	5.88892	53.6902	168.434	28.6219	28.19	159.452	36.8967	1.047	149.096	34.5408	-17.1051	192.769	-22.1043	-17.0148	185.935	-15.9067	-43.7739	167.183	-2.32356	-64.6049	174.859	-37.5061	-21.6888	163.414	-27.9697	-46.2318	135.45	-7.31154	-56.6155	159.725	-51.5064	-12.0131	149.717	-49.2194	-39.1976	136.895	-33.6044	-59.3989	141.138	-61.6435	1.89982	131.351	-68.2046	-21.1918	125.313	-72.1644	-40.8302	170.04	-52.1362	36.136	171.355	-51.1863	65.774	194.699	-30.3558	48.2577	
301	2.50833	186.1	10.2198	54.0583	166.936	25.5961	27.103	158.523	36.8196	2.81519	146.77	30.691	-20.8152	193.353	-22.1126	-16.4165	185.495	-15.5538	-44.1596	165.335	-3.70248	-64.0216	171.695	-38.4688	-23.2691	158.453	-25.5807	-47.2411	133.306	-1.31396	-53.1646	159.004	-49.7463	-14.85	149.758	-46.8901	-38.7914	135.247	-27.9998	-60.7731	143.351	-58.5833	0.875419	132.453	-65.2445	-16.8189	122.389	-72.9384	-44.9492	167.259	-51.7057	39.2993	170.227	-51.8733	69.8033	190.91	-33.2403	45.7536	
302	2.51667	183.063	6.55722	52.647	165.757	23.6604	27.898	157.153	33.1914	2.61991	145.7	29.1449	-16.6659	193.64	-21.293	-14.174	182.85	-17.2177	-44.0814	164.704	-2.76519	-63.7573	172.521	-35.5558	-19.1358	155.338	-23.6628	-45.7278	132.818	2.06719	-50.3699	156.875	-51.7785	-14.5313	144.816	-45.8144	-39.6285	129.954	-27.3676	-58.8235	142.203	-58.936	2.40566	130.695	-66.0156	-18.4554	121.937	-70.7802	-41.8314	169.699	-51.0268	36.9707	170.65	-49.9238	70.5821	192.328	-32.8581	46.5317	
303	2.525	184.286	8.62505	53.4756	165.154	23.9439	25.9433	155.524	33.8665	0.580511	144.54	31.0552	-18.2161	191.638	-23.1903	-13.1876	185.965	-15.8878	-44.0256	168.077	-5.19833	-61.3133	170.006	-36.2501	-22.2743	156.686	-17.872	-46.5265	134.944	5.4292	-46.124	157.615	-48.903	-10.1737	143.361	-44.9009	-39.5669	129.842	-23.4866	-58.1253	139.579	-61.2266	1.96159	131.254	-64.3046	-16.6029	126.35	-69.9592	-44.24	168.802	-49.9291	35.5992	169.973	-49.5242	67.6089	193.798	-30.1967	48.2066	
304	2.53333	182.753	6.89128	53.7348	165.107	22.8417	27.3466	154.917	28.0149	2.60189	143.292	24.8523	-16.7195	193.683	-21.4922	-16.889	185.663	-17.2499	-41.3569	162.602	-3.71665	-60.3728	172.36	-33.3738	-21.6923	154.927	-18.4663	-43.3197	133.875	12.663	-40.813	157.987	-46.9116	-14.7026	143.607	-40.0409	-41.4498	129.395	-21.7191	-54.8278	139.075	-60.1847	3.15831	131.99	-62.9905	-15.2355	121.697	-69.66	-38.7035	168.032	-50.9808	36.8659	169.598	-51.0524	66.4252	195.911	-31.2547	49.855	
305	2.54167	182.715	7.37688	54.9062	164.379	23.8258	30.9135	153.784	25.8865	1.31218	141.659	20.0511	-18.8342	191.349	-21.1408	-13.7199	184.57	-15.6935	-41.3025	163.535	-2.62251	-59.6988	171.897	-32.8544	-18.5442	154.133	-14.3206	-42.6317	134.497	11.6622	-37.5444	156.094	-46.9643	-15.0743	145.211	-40.6097	-37.4989	129.339	-19.1101	-54.5906	137.672	-57.7326	6.66987	129.334	-64.312	-19.2813	125.822	-66.8686	-39.7225	167.04	-51.1088	40.5777	167.625	-53.0946	67.3003	194.253	-29.7897	50.1299	
306	2.55	183.612	8.75733	53.4334	163.681	25.3157	28.3916	153.029	29.881	0.837857	140.899	22.065	-16.582	192.692	-19.3483	-17.9274	180.097	-15.3778	-41.6494	158.92	-2.07245	-58.3674	170.068	-32.7285	-20.4655	153.303	-12.6328	-42.9036	132.027	11.1381	-35.5905	155.983	-46.4782	-12.1281	143.697	-39.4275	-37.8459	124.518	-19.4987	-54.6177	141.041	-56.9283	3.08722	130.838	-62.4181	-14.6017	123.269	-70.6601	-42.6666	168.518	-49.7487	40.9692	166.754	-51.1893	70.4502	190.72	-32.204	47.4692	
307	2.55833	182.181	8.3941	53.4955	162.459	22.6479	28.7095	152.771	28.3495	4.23406	139.038	21.6793	-21.6806	186.978	-21.7874	-17.5277	179.723	-10.5012	-45.024	160.759	2.36201	-57.7004	170.506	-31.3338	-21.9147	151.912	-13.036	-42.5537	132.441	12.1613	-36.6773	153.718	-48.8756	-12.5722	144.235	-38.8038	-37.801	125.942	-18.1603	-54.7783	136.957	-58.0075	5.00114	129.507	-62.5437	-18.325	124.657	-68.1365	-42.0211	164.998	-50.5652	38.4906	169.978	-47.9053	65.7475	192.762	-31.2473	47.7862	
